# xmcd
#
# Track frame offsets: 
#        183
#        20925
#        38335
#        54365
#        71340
#        84585
#        101128
#        115885
#        130740
#        152483
#        164223
#        184135
#        202953
#        221330
#
# Disc length: 3318 seconds
#
# Revision: 8
# Processed by: cddbd v1.5.2PL0 Copyright (c) Steve Scherf et al.
# Submitted via: ExactAudioCopy v1.3
#
DISCID=bc0cf40e
DTITLE=Memphis Slim - Beer Drinkin' Woman - The Blues Collection 13
DYEAR=1995
DGENRE=Blues
TTITLE0=Late Afternoon Blues [mono]
TTITLE1=I Believe I'll Settle Down
TTITLE2=Born With The Blues
TTITLE3=Bad Luck And Troubles
TTITLE4=Memphis Slim U.S.A.
TTITLE5=Just Let Me Be
TTITLE6=Rockin' Chair Blues
TTITLE7=I Feel So Good
TTITLE8=Slow Blues
TTITLE9=Frisco Bay [mono]
TTITLE10=Beer Drinkin' Woman [mono]
TTITLE11=Blues For Bertha May [mono]
TTITLE12=In The Evening [mono]
TTITLE13=If You See Kay [mono]
EXTD=
EXTT0=
EXTT1=
EXTT2=
EXTT3=
EXTT4=
EXTT5=
EXTT6=
EXTT7=
EXTT8=
EXTT9=
EXTT10=
EXTT11=
EXTT12=
EXTT13=
PLAYORDER=
